/* XPM */
static char *_77a2df837044e33b595a1b443e93439RcCKFzlB8rE7Ftx1[] = {
/* columns rows colors chars-per-pixel */
"32 32 2 1 ",
"  c #5E5E2B",
". c #91913F",
/* pixels */
"................................",
"................................",
"................................",
"................................",
"........    ........    ........",
"........    ........    ........",
"..........    ....    ..........",
"..........    ....    ..........",
"..      ..    ....    ..      ..",
"..      ..    ....    ..      ..",
"....      ..  ....  ..      ....",
"....      ..  ....  ..      ....",
"......    ............    ......",
"......    ............    ......",
"................................",
"........    ........    ........",
"........    ........    ........",
"..........    ....    ..........",
"..........    ....    ..........",
"..........    ....    ..........",
"..........    ....    ..........",
"..        ..  ....  ..        ..",
"..        ..  ....  ..        ..",
"....      ............      ....",
"....      ............      ....",
"......    ............    ......",
"......    ............    ......",
"................................",
"................................",
"................................",
"................................",
"................................"
};
