/* XPM */
static char *_1169bda0bdd4524e8d23fea1fc41e087DNuD46FKj0SZUpY[] = {
/* columns rows colors chars-per-pixel */
"32 32 4 1 ",
"  c black",
". c #0C6624",
"X c #ED1C24",
"o c #22B14C",
/* pixels */
"oooooooooooooooooooooooooooooooo",
"oooooooooooooooooooooooooooooooo",
"oooooo.oooooooooooooooooo...oooo",
"oooooo.oooooooooooooooo..ooooooo",
"oooo...oooooooooooooooo.oooooooo",
"oooo.ooooooooooooooooooooooooooo",
"oooooooooooooooooooooooooooooooo",
"oooooooooooooooooooooooooooooooo",
"ooooooooooooooooooooooXXXooooooo",
"oooooXXXooooooooooooooX Xooooooo",
"oooooX Xooooooooooooooo.oooooooo",
"oooooo.oooooooooooooooo.oooooooo",
"oooooo..oooooooooooo....oooooooo",
"ooooooo.oooooooooooo.ooooooooooo",
"ooooooo.oooooooooooo.ooooooooooo",
"ooooooo.oooooooooooo.ooooooooooo",
"oooooooooooooooooooooooooooooooo",
"oooooooooooooooooooooooooooooooo",
"ooooooooooooooooooooooooooo..ooo",
"oooooooooooooooooooooooooo..oooo",
"ooooooooo..ooooooooooooooooooooo",
"oooooooooo.ooo..oooooooooooooooo",
"ooo.oooooo..o..ooooooooooooooooo",
"ooo.ooooooo...ooooooo..o...ooooo",
"ooo..ooooooooooooooooo...ooooooo",
"oooo.oooooooooooooooooo..ooooooo",
"oooo..oooooooooooooooooooooooooo",
"ooooo.oooooooooooooooooooooooooo",
"ooooo.ooooooooo..ooooooooooooooo",
"oooooooooooooooooooooooooooooooo",
"oooooooooooooooooooooooooooooooo",
"oooooooooooooooooooooooooooooooo"
};
