/* XPM */
static char *result[] = {
/* columns rows colors chars-per-pixel */
"32 32 6 1 ",
"  c black",
". c #5E5E2B",
"X c #91913F",
"o c #3F48CC",
"O c #00A2E8",
"+ c white",
/* pixels */
"XXXXXXXXXXXXXXXXXXXXXXXXXXXXXXXX",
"XXXXXXXXXXXXXXXXXXXXXXXXXXXXXXXX",
"XXXXXXXXXXXXXXXXXXXXXXXXXXXXXXXX",
"XXXXXXXXXXXXXXXXXXXXXXXXXXXXXXXX",
"XXXXXXXX....XXXXXXXX....XXXXXXXX",
"XXXXXXXX....XXXXXXXX....XXXXXXXX",
"XXXXXXXXXX....XXXX....XXXXXXXXXX",
"XXXXXXXXXX....XXXX....XXXXXXXXXX",
"XX......XX....X  X....XX......XX",
"XX......XX.... Oo ....XX......XX",
"XXXX......XX. OooO .XX......XXXX",
"XXXX......XX  OooO  XX......XXXX",
"XXXXXX....XX OOooo+ XX....XXXXXX",
"XXXXXX....XX OooOo+ XX....XXXXXX",
"XXXXXXXXXXXX ooOOo+ XXXXXXXXXXXX",
"XXXXXXXX.... ooOoo+ ....XXXXXXXX",
"XXXXXXXX.... ooo+O+ ....XXXXXXXX",
"XXXXXXXXXX.. oo+Oo+ ..XXXXXXXXXX",
"XXXXXXXXXX.. ooOo++ ..XXXXXXXXXX",
"XXXXXXXXXX... ++++ ...XXXXXXXXXX",
"XXXXXXXXXX.... ++ ....XXXXXXXXXX",
"XX........XX..X  X..XX........XX",
"XX........XX..XXXX..XX........XX",
"XXXX......XXXXXXXXXXXX......XXXX",
"XXXX......XXXXXXXXXXXX......XXXX",
"XXXXXX....XXXXXXXXXXXX....XXXXXX",
"XXXXXX....XXXXXXXXXXXX....XXXXXX",
"XXXXXXXXXXXXXXXXXXXXXXXXXXXXXXXX",
"XXXXXXXXXXXXXXXXXXXXXXXXXXXXXXXX",
"XXXXXXXXXXXXXXXXXXXXXXXXXXXXXXXX",
"XXXXXXXXXXXXXXXXXXXXXXXXXXXXXXXX",
"XXXXXXXXXXXXXXXXXXXXXXXXXXXXXXXX"
};
