/* XPM */
static char *result[] = {
/* columns rows colors chars-per-pixel */
"32 32 6 1 ",
"  c black",
". c #5E5E2B",
"X c #91913F",
"o c #3F48CC",
"O c #5487FF",
"+ c white",
/* pixels */
"XXXXXXXXXXXXXXXXXXXXXXXXXXXXXXXX",
"XXXXXXXXXXXXXXXXXXXXXXXXXXXXXXXX",
"XXXXXXXXXXXXXXXXXXXXXXXXXXXXXXXX",
"XXXXXXXXXXXXXXXXXXXXXXXXXXXXXXXX",
"XXXXXXXX....XXXXXXXX....XXXXXXXX",
"XXXXXXXX....XXXXXXXX....XXXXXXXX",
"XXXXXXXXXX....XXXX....XXXXXXXXXX",
"XXXXXXXXXX....XXXX....XXXXXXXXXX",
"XX......XX....X  X....XX......XX",
"XX......XX.... +o ....XX......XX",
"XXXX......XX. ++++ .XX......XXXX",
"XXXX......XX  +Oo+  XX......XXXX",
"XXXXXX....XX ++++oo XX....XXXXXX",
"XXXXXX....XX +O++oO XX....XXXXXX",
"XXXXXXXXXXXX +o++oO XXXXXXXXXXXX",
"XXXXXXXX.... +o+OoO ....XXXXXXXX",
"XXXXXXXX.... +oOOoo ....XXXXXXXX",
"XXXXXXXXXX.. ++Oooo ..XXXXXXXXXX",
"XXXXXXXXXX.. +OOooo ..XXXXXXXXXX",
"XXXXXXXXXX... OOoo ...XXXXXXXXXX",
"XXXXXXXXXX.... oo ....XXXXXXXXXX",
"XX........XX..X  X..XX........XX",
"XX........XX..XXXX..XX........XX",
"XXXX......XXXXXXXXXXXX......XXXX",
"XXXX......XXXXXXXXXXXX......XXXX",
"XXXXXX....XXXXXXXXXXXX....XXXXXX",
"XXXXXX....XXXXXXXXXXXX....XXXXXX",
"XXXXXXXXXXXXXXXXXXXXXXXXXXXXXXXX",
"XXXXXXXXXXXXXXXXXXXXXXXXXXXXXXXX",
"XXXXXXXXXXXXXXXXXXXXXXXXXXXXXXXX",
"XXXXXXXXXXXXXXXXXXXXXXXXXXXXXXXX",
"XXXXXXXXXXXXXXXXXXXXXXXXXXXXXXXX"
};
