/* XPM */
static char *result[] = {
/* columns rows colors chars-per-pixel */
"32 32 5 1 ",
"  c black",
". c #5E5E2B",
"X c #91913F",
"o c #3F48CC",
"O c #5487FF",
/* pixels */
"XXXXXXXXXXXXXXXXXXXXXXXXXXXXXXXX",
"XXXXXXXXXXXXXXXXXXXXXXXXXXXXXXXX",
"XXXXXXXXXXXXXXXXXXXXXXXXXXXXXXXX",
"XXXXXXXXXXXXXXXXXXXXXXXXXXXXXXXX",
"XXXXXXXX....XXXXXXXX....XXXXXXXX",
"XXXXXXXX....XXXXXXXX....XXXXXXXX",
"XXXXXXXXXX....XXXX....XXXXXXXXXX",
"XXXXXXXXXX....XXXX....XXXXXXXXXX",
"XX......XX....X  X....XX......XX",
"XX......XX.... OO ....XX......XX",
"XXXX......XX. OOoo .XX......XXXX",
"XXXX......XX  OOoo  XX......XXXX",
"XXXXXX....XX OOoooo XX....XXXXXX",
"XXXXXX....XX OooooO XX....XXXXXX",
"XXXXXXXXXXXX OooOoO XXXXXXXXXXXX",
"XXXXXXXX.... OoOooO ....XXXXXXXX",
"XXXXXXXX.... Oooooo ....XXXXXXXX",
"XXXXXXXXXX.. OoooOo ..XXXXXXXXXX",
"XXXXXXXXXX.. OOoOoo ..XXXXXXXXXX",
"XXXXXXXXXX... oOoo ...XXXXXXXXXX",
"XXXXXXXXXX.... oo ....XXXXXXXXXX",
"XX........XX..X  X..XX........XX",
"XX........XX..XXXX..XX........XX",
"XXXX......XXXXXXXXXXXX......XXXX",
"XXXX......XXXXXXXXXXXX......XXXX",
"XXXXXX....XXXXXXXXXXXX....XXXXXX",
"XXXXXX....XXXXXXXXXXXX....XXXXXX",
"XXXXXXXXXXXXXXXXXXXXXXXXXXXXXXXX",
"XXXXXXXXXXXXXXXXXXXXXXXXXXXXXXXX",
"XXXXXXXXXXXXXXXXXXXXXXXXXXXXXXXX",
"XXXXXXXXXXXXXXXXXXXXXXXXXXXXXXXX",
"XXXXXXXXXXXXXXXXXXXXXXXXXXXXXXXX"
};
