/* XPM */
static char *_11ac68d2fad4032bb20fb4e10e3c6bbx1t4MU5Aa5CjfP3R[] = {
/* columns rows colors chars-per-pixel */
"32 32 9 1 ",
"  c #323232",
". c #5E5E2B",
"X c #996633",
"o c #009933",
"O c #91913F",
"+ c #99CC33",
"@ c #FFCC33",
"# c #FF9966",
"$ c white",
/* pixels */
"OOOOOOOOOOOOOOOOOOOOOOOOOOOOOOOO",
"OOOOOOOOOOOOOOOO  OOOOOOOOOOOOOO",
"OOOOOOOOOOOOOOO oo OOOOOOOOOOOOO",
"OOOOOOOOOOOOO        OOOOOOOOOOO",
"OOOOOOOO.... oo $$ oo ..OOOOOOOO",
"OOOOOOOO... oo ++$$ +o .OOOOOOOO",
"OOOOOOOOOO. o+o +$ +$o OOOOOOOOO",
"OOOOOOOOOO. ooo +$ o+o OOOOOOOOO",
"OO......OO o   +$$$   o ......OO",
"OO......OO +   o++o   + ......OO",
"OOOO...... o    oo    o ....OOOO",
"OOOO...... o  $    $  o ....OOOO",
"OOOOOO....  o $$  $$ o  ..OOOOOO",
"OOOOOO... @ o+  XX  +o # .OOOOOO",
"OOOOOOOOO @@ o+ ## +o #@ OOOOOOO",
"OOOOOOOO.. @@ o XX o @@ OOOOOOOO",
"OOOOOOOO. o @@      @@   OOOOOOO",
"OOOOOOOOO         oo oo+ OOOOOOO",
"OOOOOOOOO ###$$ o++o +++ OOOOOOO",
"OOOOOOOOO    X#  oo      OOOOOOO",
"OOOOOOOOO @@XX#     @@@@ OOOOOOO",
"OO....... @@XX# +++ @  @ .....OO",
"OO....... @@XXX oo+  $$  .....OO",
"OOOO..... @@@X@ oo oo$$.....OOOO",
"OOOO...... @@@     ++$$.....OOOO",
"OOOOOO....O          $$...OOOOOO",
"OOOOOO....O XXXX     $$...OOOOOO",
"OOOOOOOOOOOO          $OOOOOOOOO",
"OOOOOOOOOOOOOO      OOOOOOOOOOOO",
"OOOOOOOOOOOOOOOOOOOOOOOOOOOOOOOO",
"OOOOOOOOOOOOOOOOOOOOOOOOOOOOOOOO",
"OOOOOOOOOOOOOOOOOOOOOOOOOOOOOOOO"
};
