/* XPM */
static char *result[] = {
/* columns rows colors chars-per-pixel */
"32 32 11 1 ",
"  c black",
". c #0C6624",
"X c #ED1C24",
"o c #FF7F27",
"O c #B97A57",
"+ c #22B14C",
"@ c #1EE656",
"# c #FFC90E",
"$ c #FFF200",
"% c #DBA88C",
"& c white",
/* pixels */
"++++++++++++++++++++++++++++++++",
"++++++++++++++++++++++++++++++++",
"++++++.+++++++    +++++++...++++",
"++++++.++++++ ++@+  +++..+++++++",
"++++...+++++ ++@@@@+ ++.++++++++",
"++++.++++ +  o++@+o +  +++++++++",
"++++++++ % #  oooo  + % ++++++++",
"++++++++ % ###    ##  % ++++++++",
"++++++++ O% ######## %O X+++++++",
"+++++XXX O #        # O X+++++++",
"+++++X X+ O O&&OO&&O O .++++++++",
"++++++.+++ OO& %% &OO +.++++++++",
"++++++..    O% %% %O  ..++++++++",
"+++++++.  O  O%%%%O .  +++++++++",
"+++++++ %%  .  OO  . OO ++++++++",
"+++++++ %%  .@.  .@ OOO ++++++++",
"++++++++  + ..@@@@. OOO ++++++++",
"++++++++++ $...@@..    +++++++++",
"++++++++++ . .$$$ $ %% ++++..+++",
"++++++++++  X .$$$. %% +++..++++",
"+++++++++. oXX ...    ++++++++++",
"++++++++++   XX   ++++++++++++++",
"+++.++++++.    +++++++++++++++++",
"+++.+++++++...+++++++..+...+++++",
"+++..+++++++++++++++++...+++++++",
"++++.++++++++++++++++++..+++++++",
"++++..++++++++++++++++++++++++++",
"+++++.++++++++++++++++++++++++++",
"+++++.+++++++++..+++++++++++++++",
"++++++++++++++++++++++++++++++++",
"++++++++++++++++++++++++++++++++",
"++++++++++++++++++++++++++++++++"
};
