/* XPM */
static char *result[] = {
/* columns rows colors chars-per-pixel */
"32 32 12 1 ",
"  c black",
". c #0C6624",
"X c #C40424",
"o c #ED1C24",
"O c #FF7F27",
"+ c #B97A57",
"@ c #22B14C",
"# c #1EE656",
"$ c #FFC90E",
"% c #FFF200",
"& c #DBA88C",
"* c white",
/* pixels */
"@@@@@@@@@@@@@@@@@@@@@@@@@@@@@@@@",
"@@@@@@@@@@@@@@@@@@@@@@@@@@@@@@@@",
"@@@@@@.@@@@@@@@@@@@@@@@@@...@@@@",
"@@@@@@.@@@@@@@@@@@@@@@@..@@@@@@@",
"@@@@...@@@@@@@@@@@@@@@@.@@@@@@@@",
"@@@@.@@@@@@@@@@@@@@@@@@@@@@@@@@@",
"@@@@@@@@@@@@@@@@@@@@@@@@@@@@@@@@",
"@@@@@@@@@@@@@@    @@@@@@@@@@@@@@",
"@@@@@@@@@@@@@ @@#@  @@ooo@@@@@@@",
"@@@@@ooo@@@@ @@####@ @o o@@@@@@@",
"@@@@@o o@ @  O@@#@O @  .@@@@@@@@",
"@@@@@@.@ & $  OOOO  @ & @@@@@@@@",
"@@@@@@.. & $$$    $$  & @@@@@@@@",
"@@@@@@@. +& $$$$$$$$ &+ @@@@@@@@",
"@@@@@@@. + $        $ + @@@@@@@@",
"@@@@@@@.@ + +**++**+ + @@@@@@@@@",
"@@@@@@@@@@ ++* && *++ @@@@@@@@@@",
"@@@@@@@@@@  +& && &+  @@@@@@@@@@",
"@@@@@@@@@ #. +&&&&+ .# @@@@..@@@",
"@@@@@@@@ + ..  ++  .. + @@..@@@@",
"@@@@@@@@ ++ .#.  .#. ++ @@@@@@@@",
"@@@@@@@@  + ...###.. +  @@@@@@@@",
"@@@.@@@@ &  ...##...  & @@@@@@@@",
"@@@.@@@@@ & %  %% %% & @...@@@@@",
"@@@..@@@@@  .. %%%..  ...@@@@@@@",
"@@@@.@@@@@@@   ...  X @..@@@@@@@",
"@@@@..@@@@@@@@    XX  @@@@@@@@@@",
"@@@@@.@@@@@@@@@@@@   @@@@@@@@@@@",
"@@@@@.@@@@@@@@@..@@@@@@@@@@@@@@@",
"@@@@@@@@@@@@@@@@@@@@@@@@@@@@@@@@",
"@@@@@@@@@@@@@@@@@@@@@@@@@@@@@@@@",
"@@@@@@@@@@@@@@@@@@@@@@@@@@@@@@@@"
};
