/* XPM */
static char *_77af57b2f874f44d60131de2291a554FZAMWpHzq941ve3B[] = {
/* columns rows colors chars-per-pixel */
"32 32 13 1 ",
"  c black",
". c #0C6624",
"X c #5E5E2B",
"o c #ED1C24",
"O c #FF7F27",
"+ c #B97A57",
"@ c #22B14C",
"# c #1EE656",
"$ c #91913F",
"% c #FFC90E",
"& c #FFF200",
"* c #DBA88C",
"= c white",
/* pixels */
"$$$$$$$$$$$$$$$$$$$$$$$$$$$$$$$$",
"$$$$$$$$$$$$$$$$$$$$$$$$$$$$$$$$",
"$$$$$$$$$$$$$$$$$$$$$$$$$$$$$$$$",
"$$$$$$$$$$$$$$$$$$$$$$$$$$$$$$$$",
"$$$$$$$$XXXX$$    $$XXXX$$$$$$$$",
"$$$$$$$$XXXX$ @@#@  XXXX$$$$$$$$",
"$$$$$$$$$$XX @@####@ X$$$$$$$$$$",
"$$$$$$$$$ X  O@@#@O @  $$$$$$$$$",
"$$XXXXXX * %  OOOO  @ * XXXXXX$$",
"$$XXXXXX * %%%    %%  * XXXXXX$$",
"$$$$XXXX +* %%%%%%%% *+ XXXX$$$$",
"$$$$XXXX + %        % + XXXX$$$$",
"$$$$$$XXX + +==++==+ + XXX$$$$$$",
"$$$$$$XXXX ++= ** =++ XXXX$$$$$$",
"$$$$$$$$$$  +* ** *+  $$$$$$$$$$",
"$$$$$$$$X #. +****+ .# X$$$$$$$$",
"$$$$$$$$ + ..  ++  .. + $$$$$$$$",
"$$$$$$$$ ++ .#.  .#. ++ $$$$$$$$",
"$$$$$$$$ *  ..#####.  * $$$$$$$$",
"$$$$$$$$ ** ...##... ** $$$$$$$$",
"$$$$$$$$ * .&& && &&. * $$$$$$$$",
"$$XXXXXXX   ..&&&&..   XXXXXXX$$",
"$$XXXXXXXX o  ....  o XXXXXXXX$$",
"$$$$XXXXXX$ Oo    oO $XXXXXX$$$$",
"$$$$XXXXXX$$   $$   $$XXXXXX$$$$",
"$$$$$$XXXX$$$$$$$$$$$$XXXX$$$$$$",
"$$$$$$XXXX$$$$$$$$$$$$XXXX$$$$$$",
"$$$$$$$$$$$$$$$$$$$$$$$$$$$$$$$$",
"$$$$$$$$$$$$$$$$$$$$$$$$$$$$$$$$",
"$$$$$$$$$$$$$$$$$$$$$$$$$$$$$$$$",
"$$$$$$$$$$$$$$$$$$$$$$$$$$$$$$$$",
"$$$$$$$$$$$$$$$$$$$$$$$$$$$$$$$$"
};
