/* XPM */
static char *result[] = {
/* columns rows colors chars-per-pixel */
"32 32 6 1 ",
"  c black",
". c #61372E",
"X c #FF2B00",
"o c #C48037",
"O c #F2AE61",
"+ c #F1F2BF",
/* pixels */
"  ..............................",
"  oo............................",
"  oooooooooooooooooooooooooooooo",
"                                ",
"..oo............  ........oo....",
"............oo..  OO....oooooo..",
"OOOOOOOOOOOOOO....OOOOOOOOOOOOOO",
"................................",
"..oo......oooo......oooooooooooo",
"..oooo..oooooooo..oooooooooooooo",
"..oooooooooooooo..oooooooooooooo",
"..OOoooooooooooooooooooooooooooo",
"..OOoooooooooooooooooooooooo..oo",
"..OOoooooooooooooooooooooo......",
"OO++OOOOOOOOOOOOOOOOOOOOOOOOOOOO",
"OOXXOOOOOOOOOOOOOOOOOOOOOOOOOOOO",
"......oooo....oooooooooooooooooo",
"oo..oooo........oooooooooo..oooo",
"oooooo............oooooo......oo",
"................................",
"................................",
"                                ",
"                                ",
"OOOOOOOOOOOOOOOOOOOOOOOOOOOOOOOO",
"OOOOOOOOOOOOOOOOOOOOOOOOOOOOOOOO",
"OOOOOOOOOOOOOOOOOOOOOOOOOOOOOOOO",
"++++++++++++++++++++++++++++++++",
"++++++++++++++++++++++++++++++++",
"++++++++++++++++++++++++++++++++",
"++++++++++++++++++++++++++++++++",
"++++++++++++++++++++++++++++++++",
"++++++++++++++++++++++++++++++++"
};
