/* XPM */
static char *result[] = {
/* columns rows colors chars-per-pixel */
"32 32 6 1 ",
"  c black",
". c #61372E",
"X c #FF2B00",
"o c #C48037",
"O c #F2AE61",
"+ c #F1F2BF",
/* pixels */
"..o ..O.ooooo.OOooo..  OOO++++++",
"..o ..O.ooooo.OOooo..  OOO++++++",
"..o .oO.oooo..OOoo...  OOO++++++",
"..o .oO.oooo..OOoo...  OOO++++++",
"..o ooO.ooooo.OOo....  OOO++++++",
"..o ooO.ooooo.OOo....  OOO++++++",
"..o .oO.ooooooOOoo...  OOO++++++",
"..o .oO.ooooooOOoo...  OOO++++++",
"..o ..O.ooooooOOooo..  OOO++++++",
"..o ..O.ooooooOOooo..  OOO++++++",
"..o ..O.ooooooOOooo..  OOO++++++",
"..o ..O.ooooooOOooo..  OOO++++++",
"..o .OO..oooooOOooo..  OOO++++++",
"..o .OO..oooooOOooo..  OOO++++++",
"..o   .....oooOOoo...  OOO++++++",
"..o   .....oooOOoo...  OOO++++++",
"..o .....oooooOOo....  OOO++++++",
"..o .....oooooOOo....  OOO++++++",
"..o .oO.ooooooOO.....  OOO++++++",
"..o .oO.ooooooOO.....  OOO++++++",
"..o ..O.ooooooOO.....  OOO++++++",
"..o ..O.ooooooOO.....  OOO++++++",
"..o ..O..oooooOOo....  OOO++++++",
"..o ..O..oooooOOo....  OOO++++++",
"..o ..O...ooooOOoo...  OOO++++++",
"..o ..O...ooooOOoo...  OOO++++++",
"..o ..O..oooooOO.oo..  OOO++++++",
"..o ..O..oooooOO.oo..  OOO++++++",
".oo o.O.oooOOO+X..o..  OOO++++++",
".oo o.O.oooOOO+X..o..  OOO++++++",
"    ..O.......OO.oo..  OOO++++++",
"    ..O.......OO.oo..  OOO++++++"
};
