/* XPM */
static char *_c7718f3e91148f1ee69272db8ca8b846oWGnySSvAxHMUvR[] = {
/* columns rows colors chars-per-pixel */
"32 32 8 1 ",
"  c None",
". c black",
"X c gray33",
"o c #9C5B4E",
"O c #C48037",
"+ c #F2AE61",
"@ c gray63",
"# c white",
/* pixels */
"XXXXXXXXXXX........XXXXXXXXXXXXX",
"...........XX@@@@XX.............",
".@@.@@.X..X@########@X..X.@@.@@.",
".@X.@#@.X@##@@@@@@@@##@X.@#@.X@.",
".X@.X@#@@#@@XXXXXXXX@@#@@#@X.@X.",
".X@X.X@##@XXXXXXXXXXXX@##@X.X@X.",
".X@.X.@#@XXXXXXXXXXXXXX@#@.X.@X.",
".XX.@.@#XXXXX......XXXXX#@.@.X@.",
".@.X@.#@XXXX........XXXX@#.@X.@.",
".@.@@.#@XXX..XXXXXX..XXX@#.@@.@.",
".@.@@.#@XX..XX....XX..XX@#.@@.@.",
".@.@@.#@XX.XX......XX.XX@#.@@.@.",
".@.@@.#@XX.X........X.XX@#.@@.@.",
".@.@@.@#XX.X........X.XX#@.@@.@.",
".@.@@.@ XX.X........X.XX#@.@@.@.",
".@.@.X##@X.X........X.X@##X.@.@.",
".@..@#@@#@X.X......X.X@#@@#@..@.",
".@.@#@XX@#@@........@@#@XX@#@.@.",
".@.@@X..X@##@@@@@@@@##@X..X@@.@.",
".@....Oo.XX@########@XX.oO....@.",
".@.X@.O+o..XX@@@@@@XX..o+O.@X.@.",
".@.X@@.OO..............OO.@@X.@.",
".@..@#@..@@@..oooo..@@@..@#@..@.",
".@X.X@######@.O++O.@######@X.X@.",
".@X..X@@@@@#@X.OO.X@#@@@@@X..X@.",
".@XX..XXXX@@#@X..X@#@@XXXX..XX@.",
".X@XX..XXXX@@######@@XXXX..XX@X.",
".X@XXX..XXXXX@@@@@@XXXXX..XXX@X.",
".@@XXXX....XXXXXXXXXX....XXXX@@.",
".#@@#@@XX..............XX@@#@@#.",
". # XXX@@@@@@@@@@@@@@@@@@XXX###.",
"................................"
};
