/* XPM */
static char *result[] = {
/* columns rows colors chars-per-pixel */
"32 32 6 1 ",
"  c black",
". c #61372E",
"X c #FF2B00",
"o c #C48037",
"O c #F2AE61",
"+ c #F1F2BF",
/* pixels */
"++++++++++++++++++++++++++++++++",
"++++++++++++++++++++++++++++++++",
"++++++++++++++++++++++++++++++++",
"++++++++++++++++++++++++++++++++",
"++++++++++++++++++++++++++++++++",
"++++++++++++++++++++++++++++++++",
"OOOOOOOOOOOOOOOOOOOOOOOOOOOOOOOO",
"OOOOOOOOOOOOOOOOOOOOOOOOOOOOOOOO",
"OOOOOOOOOOOOOOOOOOOOOOOOOOOOOOOO",
"                                ",
"                                ",
"................................",
"................................",
"oo......oooooo............oooooo",
"oooo..oooooooooo........oooo..oo",
"oooooooooooooooooo....oooo......",
"OOOOOOOOOOOOOOOOOOOOOOOOOOOOXXOO",
"OOOOOOOOOOOOOOOOOOOOOOOOOOOO++OO",
"......ooooooooooooooooooooooOO..",
"oo..ooooooooooooooooooooooooOO..",
"ooooooooooooooooooooooooooooOO..",
"oooooooooooooo..oooooooooooooo..",
"oooooooooooooo..oooooooo..oooo..",
"oooooooooooo......oooo......oo..",
"................................",
"OOOOOOOOOOOOOO....OOOOOOOOOOOOOO",
"..oooooo....OO  ..oo............",
"....oo........  ............oo..",
"                                ",
"oooooooooooooooooooooooooooooo  ",
"............................oo  ",
"..............................  "
};
