/* XPM */
static char *result[] = {
/* columns rows colors chars-per-pixel */
"32 32 6 1 ",
"  c black",
". c #61372E",
"X c #FF2B00",
"o c #C48037",
"O c #F2AE61",
"+ c #F1F2BF",
/* pixels */
"++++++OOO  ..oo.OO.......O..    ",
"++++++OOO  ..oo.OO.......O..    ",
"++++++OOO  ..o..X+OOOooo.O.o oo.",
"++++++OOO  ..o..X+OOOooo.O.o oo.",
"++++++OOO  ..oo.OOooooo..O.. o..",
"++++++OOO  ..oo.OOooooo..O.. o..",
"++++++OOO  ...ooOOoooo...O.. o..",
"++++++OOO  ...ooOOoooo...O.. o..",
"++++++OOO  ....oOOooooo..O.. o..",
"++++++OOO  ....oOOooooo..O.. o..",
"++++++OOO  .....OOoooooo.O.. o..",
"++++++OOO  .....OOoooooo.O.. o..",
"++++++OOO  .....OOoooooo.Oo. o..",
"++++++OOO  .....OOoooooo.Oo. o..",
"++++++OOO  ....oOOooooo..... o..",
"++++++OOO  ....oOOooooo..... o..",
"++++++OOO  ...ooOOooo.....   o..",
"++++++OOO  ...ooOOooo.....   o..",
"++++++OOO  ..oooOOooooo..OO. o..",
"++++++OOO  ..oooOOooooo..OO. o..",
"++++++OOO  ..oooOOoooooo.O.. o..",
"++++++OOO  ..oooOOoooooo.O.. o..",
"++++++OOO  ..oooOOoooooo.O.. o..",
"++++++OOO  ..oooOOoooooo.O.. o..",
"++++++OOO  ...ooOOoooooo.Oo. o..",
"++++++OOO  ...ooOOoooooo.Oo. o..",
"++++++OOO  ....oOO.ooooo.Ooo o..",
"++++++OOO  ....oOO.ooooo.Ooo o..",
"++++++OOO  ...ooOO..oooo.Oo. o..",
"++++++OOO  ...ooOO..oooo.Oo. o..",
"++++++OOO  ..oooOO.ooooo.O.. o..",
"++++++OOO  ..oooOO.ooooo.O.. o.."
};
