/* XPM */
static char *result[] = {
/* columns rows colors chars-per-pixel */
"32 32 3 1 ",
"  c black",
". c gray50",
"X c #C3C3C3",
/* pixels */
"                                ",
"                                ",
"  ..XXXX......XXXX......XXXX..  ",
"  ..XXXX......XXXX......XXXX..  ",
"  XX..    ..XX....XX..    ..XX  ",
"  XX..    ..XX....XX..    ..XX  ",
"  XX    ..XX..    ..XX..    XX  ",
"  XX    ..XX..    ..XX..    XX  ",
"  ..  ..XX..  ....  ..XX..  ..  ",
"  ..  ..XX..  ....  ..XX..  ..  ",
"  ....XX..  ..XXXX..  ..XX....  ",
"  ....XX..  ..XXXX..  ..XX....  ",
"  ..XX..  ..XX....XX..  ..XX..  ",
"  ..XX..  ..XX....XX..  ..XX..  ",
"  XX..  ..XX..    ..XX..  ..XX  ",
"  XX..  ..XX..    ..XX..  ..XX  ",
"  XX..  ..XX..    ..XX..  ..XX  ",
"  XX..  ..XX..    ..XX..  ..XX  ",
"  ..XX..  ..XX....XX..  ..XX..  ",
"  ..XX..  ..XX....XX..  ..XX..  ",
"  ....XX..  ..XXXX..  ..XX....  ",
"  ....XX..  ..XXXX..  ..XX....  ",
"  ..  ..XX..  ....  ..XX..  ..  ",
"  ..  ..XX..  ....  ..XX..  ..  ",
"  XX    ..XX..    ..XX..    XX  ",
"  XX    ..XX..    ..XX..    XX  ",
"  XX..    ..XX....XX..    ..XX  ",
"  XX..    ..XX....XX..    ..XX  ",
"  ..XXXX......XXXX......XXXX..  ",
"  ..XXXX......XXXX......XXXX..  ",
"                                ",
"                                "
};
