/* XPM */
static char *result[] = {
/* columns rows colors chars-per-pixel */
"32 32 4 1 ",
"  c black",
". c #FFC90E",
"X c #FFF200",
"o c #CFC532",
/* pixels */
"                                ",
"                                ",
"  ooXXXXooooooXXXXooooooXXXXoo  ",
"  ooXXXXooooooXXXXooooooXXXXoo  ",
"  XXoo....ooXXooooXXoo....ooXX  ",
"  XXoo....ooXXooooXXoo....ooXX  ",
"  XX....ooXXoo....ooXXoo....XX  ",
"  XX....ooXXoo....ooXXoo....XX  ",
"  oo..ooXXoo..oooo..ooXXoo..oo  ",
"  oo..ooXXoo..oooo..ooXXoo..oo  ",
"  ooooXXoo..ooXXXXoo..ooXXoooo  ",
"  ooooXXoo..ooXXXXoo..ooXXoooo  ",
"  ooXXoo..ooXXooooXXoo..ooXXoo  ",
"  ooXXoo..ooXXooooXXoo..ooXXoo  ",
"  XXoo..ooXXoo....ooXXoo..ooXX  ",
"  XXoo..ooXXoo....ooXXoo..ooXX  ",
"  XXoo..ooXXoo....ooXXoo..ooXX  ",
"  XXoo..ooXXoo....ooXXoo..ooXX  ",
"  ooXXoo..ooXXooooXXoo..ooXXoo  ",
"  ooXXoo..ooXXooooXXoo..ooXXoo  ",
"  ooooXXoo..ooXXXXoo..ooXXoooo  ",
"  ooooXXoo..ooXXXXoo..ooXXoooo  ",
"  oo..ooXXoo..oooo..ooXXoo..oo  ",
"  oo..ooXXoo..oooo..ooXXoo..oo  ",
"  XX....ooXXoo....ooXXoo....XX  ",
"  XX....ooXXoo....ooXXoo....XX  ",
"  XXoo....ooXXooooXXoo....ooXX  ",
"  XXoo....ooXXooooXXoo....ooXX  ",
"  ooXXXXooooooXXXXooooooXXXXoo  ",
"  ooXXXXooooooXXXXooooooXXXXoo  ",
"                                ",
"                                "
};
